<mxfile host="app.diagrams.net" agent="Mozilla/5.0 (Windows NT 10.0; Win64; x64) AppleWebKit/537.36 (KHTML, like Gecko) Chrome/132.0.0.0 Safari/537.36" version="28.0.6">
  <diagram name="Page-1" id="k_7DdG2bsZ3LLCy5MZhk">
    <mxGraphModel dx="872" dy="477" grid="0" gridSize="10" guides="1" tooltips="1" connect="1" arrows="1" fold="1" page="1" pageScale="1" pageWidth="850" pageHeight="1100" math="0" shadow="0">
      <root>
        <mxCell id="0" />
        <mxCell id="1" parent="0" />
        <mxCell id="lIQJX68cG-TCtlWwf6WE-1" value="" style="edgeStyle=orthogonalEdgeStyle;rounded=0;orthogonalLoop=1;jettySize=auto;html=1;" edge="1" parent="1" source="lIQJX68cG-TCtlWwf6WE-2" target="lIQJX68cG-TCtlWwf6WE-10">
          <mxGeometry relative="1" as="geometry" />
        </mxCell>
        <mxCell id="lIQJX68cG-TCtlWwf6WE-2" value="" style="rounded=0;whiteSpace=wrap;html=1;" vertex="1" parent="1">
          <mxGeometry x="120" y="30" width="278" height="413" as="geometry" />
        </mxCell>
        <mxCell id="lIQJX68cG-TCtlWwf6WE-3" value="Real-Time Feedback" style="text;html=1;align=center;verticalAlign=middle;resizable=0;points=[];autosize=1;strokeColor=none;fillColor=none;" vertex="1" parent="1">
          <mxGeometry x="124" y="34" width="129" height="26" as="geometry" />
        </mxCell>
        <mxCell id="lIQJX68cG-TCtlWwf6WE-4" style="edgeStyle=orthogonalEdgeStyle;rounded=0;orthogonalLoop=1;jettySize=auto;html=1;exitX=0.5;exitY=1;exitDx=0;exitDy=0;" edge="1" parent="1" source="lIQJX68cG-TCtlWwf6WE-5" target="lIQJX68cG-TCtlWwf6WE-7">
          <mxGeometry relative="1" as="geometry" />
        </mxCell>
        <mxCell id="lIQJX68cG-TCtlWwf6WE-5" value="Canvas Overlay" style="rounded=0;whiteSpace=wrap;html=1;" vertex="1" parent="1">
          <mxGeometry x="198" y="88" width="117" height="36" as="geometry" />
        </mxCell>
        <mxCell id="lIQJX68cG-TCtlWwf6WE-6" style="edgeStyle=orthogonalEdgeStyle;rounded=0;orthogonalLoop=1;jettySize=auto;html=1;exitX=0.5;exitY=1;exitDx=0;exitDy=0;" edge="1" parent="1" source="lIQJX68cG-TCtlWwf6WE-7" target="lIQJX68cG-TCtlWwf6WE-9">
          <mxGeometry relative="1" as="geometry" />
        </mxCell>
        <mxCell id="lIQJX68cG-TCtlWwf6WE-7" value="Live Pose Skeleton" style="rounded=0;whiteSpace=wrap;html=1;" vertex="1" parent="1">
          <mxGeometry x="198" y="148" width="117" height="36" as="geometry" />
        </mxCell>
        <mxCell id="lIQJX68cG-TCtlWwf6WE-8" style="edgeStyle=orthogonalEdgeStyle;rounded=0;orthogonalLoop=1;jettySize=auto;html=1;exitX=0.5;exitY=1;exitDx=0;exitDy=0;entryX=0.5;entryY=0;entryDx=0;entryDy=0;" edge="1" parent="1" source="lIQJX68cG-TCtlWwf6WE-9" target="lIQJX68cG-TCtlWwf6WE-22">
          <mxGeometry relative="1" as="geometry" />
        </mxCell>
        <mxCell id="lIQJX68cG-TCtlWwf6WE-9" value="Reference Pose Skeleton" style="rounded=0;whiteSpace=wrap;html=1;" vertex="1" parent="1">
          <mxGeometry x="198" y="210" width="117" height="36" as="geometry" />
        </mxCell>
        <mxCell id="lIQJX68cG-TCtlWwf6WE-10" value="" style="rounded=0;whiteSpace=wrap;html=1;" vertex="1" parent="1">
          <mxGeometry x="443" y="30" width="288" height="412" as="geometry" />
        </mxCell>
        <mxCell id="lIQJX68cG-TCtlWwf6WE-11" value="Final Metrics &amp;amp; Suggestions" style="text;html=1;align=center;verticalAlign=middle;resizable=0;points=[];autosize=1;strokeColor=none;fillColor=none;" vertex="1" parent="1">
          <mxGeometry x="448" y="38" width="167" height="26" as="geometry" />
        </mxCell>
        <mxCell id="lIQJX68cG-TCtlWwf6WE-12" style="edgeStyle=orthogonalEdgeStyle;rounded=0;orthogonalLoop=1;jettySize=auto;html=1;exitX=0.5;exitY=1;exitDx=0;exitDy=0;entryX=0.5;entryY=0;entryDx=0;entryDy=0;" edge="1" parent="1" source="lIQJX68cG-TCtlWwf6WE-13" target="lIQJX68cG-TCtlWwf6WE-15">
          <mxGeometry relative="1" as="geometry" />
        </mxCell>
        <mxCell id="lIQJX68cG-TCtlWwf6WE-13" value="Show Stability Time" style="rounded=0;whiteSpace=wrap;html=1;" vertex="1" parent="1">
          <mxGeometry x="521" y="88" width="143" height="36" as="geometry" />
        </mxCell>
        <mxCell id="lIQJX68cG-TCtlWwf6WE-14" style="edgeStyle=orthogonalEdgeStyle;rounded=0;orthogonalLoop=1;jettySize=auto;html=1;exitX=0.5;exitY=1;exitDx=0;exitDy=0;" edge="1" parent="1" source="lIQJX68cG-TCtlWwf6WE-15" target="lIQJX68cG-TCtlWwf6WE-17">
          <mxGeometry relative="1" as="geometry" />
        </mxCell>
        <mxCell id="lIQJX68cG-TCtlWwf6WE-15" value="Show Pose Accuracy %&amp;nbsp;&amp;nbsp;" style="rounded=0;whiteSpace=wrap;html=1;" vertex="1" parent="1">
          <mxGeometry x="521" y="148" width="143" height="36" as="geometry" />
        </mxCell>
        <mxCell id="lIQJX68cG-TCtlWwf6WE-16" style="edgeStyle=orthogonalEdgeStyle;rounded=0;orthogonalLoop=1;jettySize=auto;html=1;exitX=0.5;exitY=1;exitDx=0;exitDy=0;entryX=0.5;entryY=0;entryDx=0;entryDy=0;" edge="1" parent="1" source="lIQJX68cG-TCtlWwf6WE-17" target="lIQJX68cG-TCtlWwf6WE-19">
          <mxGeometry relative="1" as="geometry" />
        </mxCell>
        <mxCell id="lIQJX68cG-TCtlWwf6WE-17" value="Show Number of corrections&amp;nbsp;" style="rounded=0;whiteSpace=wrap;html=1;" vertex="1" parent="1">
          <mxGeometry x="521" y="210" width="143" height="36" as="geometry" />
        </mxCell>
        <mxCell id="lIQJX68cG-TCtlWwf6WE-18" style="edgeStyle=orthogonalEdgeStyle;rounded=0;orthogonalLoop=1;jettySize=auto;html=1;exitX=0.5;exitY=1;exitDx=0;exitDy=0;entryX=0.5;entryY=0;entryDx=0;entryDy=0;" edge="1" parent="1" source="lIQJX68cG-TCtlWwf6WE-19" target="lIQJX68cG-TCtlWwf6WE-20">
          <mxGeometry relative="1" as="geometry" />
        </mxCell>
        <mxCell id="lIQJX68cG-TCtlWwf6WE-19" value="Save Report to User Profile" style="rounded=0;whiteSpace=wrap;html=1;" vertex="1" parent="1">
          <mxGeometry x="521" y="269" width="143" height="36" as="geometry" />
        </mxCell>
        <mxCell id="lIQJX68cG-TCtlWwf6WE-20" value="Suggest next pose / exit session" style="rounded=0;whiteSpace=wrap;html=1;" vertex="1" parent="1">
          <mxGeometry x="521" y="335" width="143" height="36" as="geometry" />
        </mxCell>
        <mxCell id="lIQJX68cG-TCtlWwf6WE-21" style="edgeStyle=orthogonalEdgeStyle;rounded=0;orthogonalLoop=1;jettySize=auto;html=1;exitX=0.5;exitY=1;exitDx=0;exitDy=0;" edge="1" parent="1" source="lIQJX68cG-TCtlWwf6WE-22" target="lIQJX68cG-TCtlWwf6WE-23">
          <mxGeometry relative="1" as="geometry" />
        </mxCell>
        <mxCell id="lIQJX68cG-TCtlWwf6WE-22" value="Audio Guidance (Web Speech API)" style="rounded=0;whiteSpace=wrap;html=1;" vertex="1" parent="1">
          <mxGeometry x="198" y="272" width="117" height="36" as="geometry" />
        </mxCell>
        <mxCell id="lIQJX68cG-TCtlWwf6WE-23" value="Optional: Show reference video clip" style="rounded=0;whiteSpace=wrap;html=1;" vertex="1" parent="1">
          <mxGeometry x="187" y="340" width="139" height="47" as="geometry" />
        </mxCell>
      </root>
    </mxGraphModel>
  </diagram>
</mxfile>
